# xmcd
#
# Track frame offsets: 
#        150
#        17738
#        31453
#        48098
#        61855
#        81051
#        94773
#        113835
#        126464
#        144033
#        162282
#
# Disc length: 2269 seconds
#
# Revision: 0
# Processed by: cddbd v1.5.2PL0 Copyright (c) Steve Scherf et al.
# Submitted via: ExactAudioCopy v0.99pb5
#
DISCID=8408db0b
DTITLE=John Baldry - Everything Stops for Tea
DYEAR=1972
DGENRE=Rock
TTITLE0=Come Back Again
TTITLE1=Seventh Son
TTITLE2=Wild Mountain Thyme
TTITLE3=Iko Iko (with Elton John)
TTITLE4=Jubilee Cloud
TTITLE5=Everything Stops for Tea
TTITLE6=You Can't Judge a Book by the Cover
TTITLE7=Mother Ain't Dead
TTITLE8=Hambone
TTITLE9=Lord Remember Me
TTITLE10=Armit's Trousers
EXTD=
EXTT0=
EXTT1=
EXTT2=
EXTT3=
EXTT4=
EXTT5=
EXTT6=
EXTT7=
EXTT8=
EXTT9=
EXTT10=
PLAYORDER=
